<?xml version="1.0" encoding="utf-8"?>
<!DOCTYPE svg PUBLIC "-//W3C//DTD SVG 1.1//EN" "http://www.w3.org/Graphics/SVG/1.1/DTD/svg11.dtd">
<svg version="1.1" id="Layer_1" xmlns="http://www.w3.org/2000/svg" xmlns:xlink="http://www.w3.org/1999/xlink" x="0px" y="0px"
	 viewBox="216.569 -56.3761 944.431 1981.4226" enable-background="new 216.569 -56.3761 944.431 1981.4226" xml:space="preserve">
<g>
	<path fill="#FFFFFF" stroke="#FFFFFF" stroke-width="0.0938" d="M624.1943,197.11c0.69-6.23,3.55-12.02,7.43-16.86
		C629.6043,186.06,625.6343,191.03,624.1943,197.11z"/>
	<path fill="#FFFFFF" stroke="#FFFFFF" stroke-width="0.0938" d="M887.9543,180.81c2.48,3.54,4.99,7.31,5.7599,11.66
		c0.9901-0.09,2.01-0.17,3.03-0.27l-0.44,1.39c2.35,6.83,2.87,14.09,3.19,21.25c-0.96-1.23-1.89-2.47-2.8-3.72
		c0.24-5.94,0.69-12.03-0.86-17.84c-0.41,0.02-1.22,0.05-1.63,0.07c0.15,1.5,0.3,3.01,0.47,4.52c-0.79-3.42-1.75-6.84-3.51-9.9
		C889.9743,185.64,888.0844,183.55,887.9543,180.81z"/>
	<path fill="#FFFFFF" stroke="#FFFFFF" stroke-width="0.0938" d="M890.8344,193.21c1.52,4.2,2.6,8.58,2.84,13.06
		C890.8943,202.48,892.0244,197.52,890.8344,193.21z"/>
	<path fill="#FFFFFF" stroke="#FFFFFF" stroke-width="0.0938" d="M619.5543,214.83c0.34-7.12,0.86-14.34,3.03-21.18
		c-0.39,5.85-0.73,11.71-0.2401,17.57C621.4143,212.42,620.4943,213.63,619.5543,214.83z"/>
	<path fill="#FFFFFF" stroke="#FFFFFF" stroke-width="0.0938" d="M627.5743,193.91c-0.31,4.13,0.45,8.77-2.19,12.31
		C625.6543,202.05,626.6143,197.96,627.5743,193.91z"/>
	<path fill="#FFFFFF" stroke="#FFFFFF" stroke-width="0.0938" d="M595.4143,220.16c-2.04-5.54-0.22-12.16,5.18-15
		C597.0543,209.38,595.4643,214.71,595.4143,220.16z"/>
	<path fill="#FFFFFF" stroke="#FFFFFF" stroke-width="0.0938" d="M918.5043,205.19c5.35,2.85,7.19,9.45,5.15,14.97
		C923.5143,214.73,922.0043,209.42,918.5043,205.19z"/>
	<path fill="#FFFFFF" stroke="#FFFFFF" stroke-width="0.0938" d="M606.6643,205.49c2.53,0.33,3.77,2.39,4.07,4.76
		c-4.71,2.87-7.75,7.68-8.65,13.1c-3.96-5.28-2.94-13.41,2.9-16.88c0.14,0.9,0.44,2.7,0.58,3.6
		C605.9243,208.54,606.2843,207.01,606.6643,205.49z"/>
	<path fill="#FFFFFF" stroke="#FFFFFF" stroke-width="0.0938" d="M908.0543,210.24c0.72-2.17,1.75-4.34,4.26-4.82
		c0.39,1.53,0.77,3.07,1.15,4.61c0.14-0.88,0.42-2.64,0.55-3.52c5.95,3.35,6.91,11.59,2.94,16.84
		C916.0643,217.9,912.9843,212.88,908.0543,210.24z"/>
	<path fill="#FFFFFF" stroke="#FFFFFF" stroke-width="0.0938" d="M606.2843,226.1c-0.98-5.11,1.59-10.87,6.7-12.56
		c2.62-0.71,4.23,2.21,3.79,4.46C614.0844,221.57,610.4243,224.4,606.2843,226.1z"/>
	<path fill="#FFFFFF" stroke="#FFFFFF" stroke-width="0.0938" d="M902.2843,218.05c-0.4-2.21,1.1-5.38,3.79-4.46
		c5.15,1.6,7.65,7.43,6.69,12.5C908.6543,224.38,904.9543,221.62,902.2843,218.05z"/>
	<path fill="#FFFFFF" stroke="#FFFFFF" stroke-width="0.0938" d="M599.1343,233.38c2.13,0.83,4.59,1.09,6.29,2.77
		C603.1043,235.79,601.1543,234.46,599.1343,233.38z"/>
	<path fill="#FFFFFF" stroke="#FFFFFF" stroke-width="0.0938" d="M913.4843,236.02c1.86-1.33,4.13-1.83,6.25-2.63
		C917.7543,234.49,915.8543,235.98,913.4843,236.02z"/>
	<path fill="#FFFFFF" stroke="#FFFFFF" stroke-width="0.0938" d="M604.7243,240.12c1.86,0.28,3.7,0.76,5.49,1.38
		C608.4043,243.73,606.3543,241.33,604.7243,240.12z"/>
	<path fill="#FFFFFF" stroke="#FFFFFF" stroke-width="0.0938" d="M908.7643,241.5c1.79-0.6,3.63-1.08,5.51-1.39
		C912.6243,241.38,910.6443,243.74,908.7643,241.5z"/>
	<path fill="#FFFFFF" stroke="#FFFFFF" stroke-width="0.0938" d="M584.9443,265.07c-0.45-2.37-0.02-4.92,1.98-6.51
		C586.4143,260.78,585.6743,262.92,584.9443,265.07z"/>
	<path fill="#FFFFFF" stroke="#FFFFFF" stroke-width="0.0938" d="M932.0844,258.55c2.09,1.56,2.49,4.11,1.99,6.53
		C933.3344,262.92,932.6043,260.76,932.0844,258.55z"/>
	<path fill="#FFFFFF" stroke="#FFFFFF" stroke-width="0.0938" d="M594.5043,329.1c-0.25-3.41,0.59-6.72,1.62-9.94
		C595.6143,322.48,596.2943,326.1,594.5043,329.1z"/>
	<path fill="#FFFFFF" stroke="#FFFFFF" stroke-width="0.0938" d="M923.3843,319.74c0.83,3.04,1.25,6.18,1.15,9.34
		C922.7543,326.28,923.4243,322.86,923.3843,319.74z"/>
	<path fill="#FFFFFF" stroke="#FFFFFF" stroke-width="0.0938" d="M589.6043,337.84c-0.11-3.98-0.75-7.99-0.05-11.95
		c0.24,3.89,0.12,7.81,0.78,11.67C590.1543,337.63,589.7943,337.77,589.6043,337.84z"/>
	<path fill="#FFFFFF" stroke="#FFFFFF" stroke-width="0.0938" d="M928.7243,337.68c0.52-3.9,0.34-7.85,0.84-11.74
		c0.46,3.96-0.12,7.92-0.15,11.89C929.2443,337.79,928.8943,337.71,928.7243,337.68z"/>
	<path fill="#FFFFFF" stroke="#FFFFFF" stroke-width="0.0938" d="M600.8344,393.96c1.48,7.34,0.89,14.98,1.9,22.41
		c-1.34-1.68-1.83-3.76-2.02-5.84C600.1543,405.04,599.2543,399.37,600.8344,393.96z"/>
	<path fill="#FFFFFF" stroke="#FFFFFF" stroke-width="0.0938" d="M917.6043,395.39c0.22-0.27,0.67-0.82,0.9-1.09
		c1.04,6.19,0.46,12.51-0.55,18.66c-0.13,1.31-1.06,2.31-1.71,3.39C916.9743,409.38,917.4043,402.39,917.6043,395.39z"/>
	<path fill="#FFFFFF" stroke="#FFFFFF" stroke-width="0.0938" d="M595.5543,406.89c-0.92-3.88-0.67-7.93-0.55-11.89
		c1.36,6.21,2.19,12.5,2.62,18.84c-0.29-0.05-0.86-0.15-1.14-0.2C597.6343,411.3,596.6843,409.01,595.5543,406.89z"/>
	<path fill="#FFFFFF" stroke="#FFFFFF" stroke-width="0.0938" d="M923.8043,395.52c0.09,0.01,0.25,0.03,0.34,0.04
		c-0.02,5.36,0.49,11.14-2.59,15.86c0.32,0.57,0.95,1.71,1.26,2.28c-0.33,0.01-0.99,0.05-1.33,0.06c-0.08-1.83-0.14-3.66-0.17-5.49
		l0.8,0.68C921.8843,404.4,923.2143,400,923.8043,395.52z"/>
	<path fill="#FFFFFF" stroke="#FFFFFF" stroke-width="0.0938" d="M591.7744,412.62c1.4-0.62,2.41,0.64,3.3799,1.43
		c-2.05,1.95-3.56,4.33-4.87,6.82C590.1543,418.09,589.4743,414.75,591.7744,412.62z"/>
	<path fill="#FFFFFF" stroke="#FFFFFF" stroke-width="0.0938" d="M923.9043,414.05c0.98-0.68,1.8701-2.1,3.2401-1.42
		c2.5,1.95,1.86,5.44,1.48,8.18C927.4743,418.28,925.9143,415.97,923.9043,414.05z"/>
	<path fill="#FFFFFF" stroke="#FFFFFF" stroke-width="0.0938" d="M596.2744,426.12c0.22-2.12,0.33-5.52,3.03-5.93
		c0.57,1.21,1.08,2.48,1.59,3.74C599.3743,424.7,597.8344,425.45,596.2744,426.12z"/>
	<path fill="#FFFFFF" stroke="#FFFFFF" stroke-width="0.0938" d="M919.7043,420.32c2.64,0.02,2.89,3.78,3.06,5.8
		c-1.58-0.67-3.11-1.43-4.63-2.2C918.6243,422.71,919.1043,421.49,919.7043,420.32z"/>
	<path fill="#FFFFFF" stroke="#FFFFFF" stroke-width="0.0938" d="M598.1043,443.1c3.8,1.35,7.81,1.56,11.81,1.24
		c1.18,1.17-0.49,2.65-0.79,3.88c-1.23-1.12-2.42-2.52-4.24-2.43c-2.72,0.75-4.1,3.41-5.79,5.42
		C598.1843,448.59,597.5343,445.86,598.1043,443.1z"/>
	<path fill="#FFFFFF" stroke="#FFFFFF" stroke-width="0.0938" d="M913.0043,444.45c2.76,0.23,5.41-0.72,8.06-1.36
		c0.35,2.79-0.2,5.55-1.15,8.18c-1.67-2.06-3.01-4.87-5.84-5.47c-1.73-0.08-2.91,1.22-4.03,2.3c-0.56-1.02-1.18-2.03-1.53-3.12
		C909.6743,443.75,911.5244,444.63,913.0043,444.45z"/>
	<path fill="#FFFFFF" stroke="#FFFFFF" stroke-width="0.0938" d="M605.1643,451.35c-2.46-0.84,1.8-4.31,2.01-1.6
		C606.6743,450.15,605.6643,450.95,605.1643,451.35z"/>
	<path fill="#FFFFFF" stroke="#FFFFFF" stroke-width="0.0938" d="M911.8043,449.65c0.11-1.79,2.8-0.81,2.75,0.59
		C914.4443,452.11,911.8943,450.91,911.8043,449.65z"/>
	<path fill="#FFFFFF" stroke="#FFFFFF" stroke-width="0.0938" d="M553.8843,1192.4c1.9,4.61,3.74,9.26,5.56,13.9199
		c-0.96,0.4401-1.92,0.89-2.87,1.3401c-0.3-0.0701-0.89-0.2101-1.18-0.28c-0.41-4.45-0.56-8.9401-1.66-13.27
		C553.7643,1193.6801,553.8443,1192.83,553.8843,1192.4z"/>
	<path stroke="#000000" stroke-width="0.0938" d="M703.0844,63.07c16.46-10.62,36.37-16.22,55.98-14.19
		c15.21-1.45,30.72,1.07,44.6,7.49c15.74,7.14,29.4,18.46,39.96,32.09c12.18,15.44,21.59,32.8,30.67,50.17
		c5.61,10.8,8.76,22.62,11.99,34.28c3.94,5.43,8.69,10.42,11.2401,16.75c3.03,7.1,3.86,14.91,4.24,22.56
		c1.85-1.27,3.96-1.95,6.23-1.8c-0.59-2.64-0.5-6.77,2.98-7.2c3.3-0.2,6.84-2.29,10.01-0.46c5.16,3,7.68,9.37,7.38,15.15
		c-0.01,3.67-2.25,6.91-2.01,10.59c-0.69,1.76-1.99,3.22-2.8,4.91c3.62-2.21,6.38-5.44,9.44-8.32c-2.65,5.33-6.42,10.46-11.98,12.99
		c-4.01,1.44-6.09,5.45-9.61,7.66c1.54,4.32,0.9901,9.21,3.33,13.26c0.96,1.88,2.15,3.65,3.4,5.37c1.39-0.47,2.89-1.42,4.41-0.77
		c2.55,1.09,3.29,4.02,4.45,6.27c1.35-2.35,2.86-5.12,1.93-7.89c-0.61-1.09-1.68-3.7-3.25-2.24c-0.24,0.52-0.71,1.55-0.94,2.06
		c-0.28-1.27-1.52-2.6-0.59-3.87c1.13-2.79,4.73-1.76,7.05-2.66c2.8-1.38,5.28,1.22,6.21,3.65c2.3701,5.62,2.47,12.94-1.89,17.65
		c-2.38,2.69-6.07,3.18-9.34,4.03c7.85,10.96,12.6,23.99,14.29,37.32c0.9,7.51-0.22,15.17-3.18,22.13
		c3.44-12.68,0.4901-26.08-3.91-38.12c1.1,11.83,4.58,24.25-0.11,35.75l-0.71-0.68c-0.53,2.23-1.82,4.51-1.23,6.86
		c3.55,10.92,2.57,23.08-1.78,33.62c-1.18,2.38-0.38,5.01-0.38,7.53c0.14,7.11-0.85,14.22-2.48,21.14c2.92-0.45,6.28-2.06,8.99-0.02
		c4.55,3.31,5.5,9.54,5.35,14.8c-0.1,5.4-3.38,10.49-8.13,13c-2.1,1.16-4.72,1.43-6.22,3.48c8.43,5.71,5.95,21.5-4.54,23.21
		c-2.91-0.01-3.66,2.6-4.14,4.92c-3.61,2.28-7.57,4.53-12,4.08c-2.04,0.21-5.52-1.03-5.63,2.08c2.52,1.09,5.19,1.8,7.79,2.74
		c-3.17,0.35-6.3199-0.11-9.3-1.18c-4.42,2.69-9.63,2.9-14.65,2.51c-0.35,3.96,4.3,3.65,6.85,4.97c-2.31,0.02-4.61-0.06-6.89-0.22
		c-1.56,3.48-4.28,6.23-7.77,7.77c-0.82,3.59-2.04,7.55-5.42,9.56c-6.42,4.04-14.53,2.39-20.97-0.72c3.66,4.18,8.82,6.41,14.14,7.64
		c-4,0.46-8.22,0.04-11.5-2.47c-5.39-3.56-8.2-9.61-11.01-15.18c-4.18,3.25-4.98,9.13-9.31,12.26c-2.9,2.43-6.82,2.75-10.43,2.3
		c2.89-1.26,6.2-2.01,8.37-4.46c1.75-1.81,2.34-4.33,3.04-6.66c-2.88-0.15-6.13,0.6-8.59-1.32c-3.89-2.7-5.43-7.57-5.48-12.11
		c-18.74,11.8-39.11,22.1-61.26,25.25c-11.06-1.42-22.42-4.26-31.77-10.58c-7.85-5.3-11.32-14.41-15.95-22.24
		c-3.14-5.39-7.32-10.07-11.86-14.32c-1.26,6.19-2.88,12.57-6.91,17.6c1.7-6.91,5.14-14.21,3.08-21.39
		c-3.32,5.33-5.22,11.38-6.48,17.49c0.84-0.87,2.52-2.59,3.36-3.46c-0.18,3.8-1.09,7.55-3.25,10.73c0.67,2.81,1.95,6.84,5.63,6.45
		c2.71-1.17,4.1-4.04,6.05-6.11c-0.06,4.75-1.44,10.01-5.65,12.75c-2.46,1.84-5.65,1.11-8.48,1.27c0.69,2.32,1.28,4.84,3.05,6.63
		c2.08,2.42,5.29,3.16,8.15,4.26c-3.56,0.86-7.43,0.25-10.28-2.14c-4.3-3.12-5.05-9.01-9.28-12.18
		c-2.94,6.05-6.18,12.63-12.36,15.98c-3.04,1.89-6.69,2.11-10.17,1.93c5.25-1.57,10.48-3.71,14.21-7.9
		c-6.27,2.96-13.96,4.65-20.35,1.08c-3.78-1.89-5.21-6.13-6.1-9.96c-3.47-1.55-6.18-4.27-7.72-7.74c-2.32,0.15-4.63,0.21-6.94,0.16
		c2.6-1.25,7.18-0.99,6.92-4.96c-5.02,0.43-10.25,0.25-14.63-2.5c-2.83,0.98-5.8,1.51-8.8,1.41c2.61-1.27,5.35-2.24,7.96-3.52
		c-2.3799-2.25-5.65-1.25-8.54-1.56c-3.68-0.1-6.79-2.3-9.88-4.04c-0.35-1.39-0.73-2.76-1.18-4.1c-0.43-0.11-1.27-0.34-1.69-0.45
		c-3.45-0.73-6.95-2.32-8.79-5.5c-3.31-5.7-2.65-14.07,3.01-18.07c-1.65-2.27-4.6801-2.37-6.88-3.85
		c-3.89-2.52-7.08-6.69-7.27-11.46c-0.42-5.56,0.28-12.24,5.04-15.87c2.71-2.14,6.17-0.56,9.14-0.02
		c-1.87-8.26-3.02-16.79-2.24-25.26c0.21-3.03-1.75-5.62-2.43-8.48c-2.71-9.6-3.12-20.19,0.44-29.63c-0.52-1.91-1.06-3.81-1.6-5.7
		l-1.19,0.47c0.07-0.8,0.2-2.4,0.26-3.2l-1.1,0.18c-2.61-10.81,0.11-21.79,1.16-32.6c-4.38,11.22-6.36,23.42-5,35.43
		c-3.88-10.69-2.44-22.41,0.77-33.07c2.46-8.49,6.31-16.57,11.47-23.75c-3.31-0.84-7.05-1.33-9.43-4.06
		c-4.21-4.58-4.09-11.67-2.02-17.19c0.86-2.16,2.78-5.12,5.5-4.27c3.06,0.97,7.25,0.07,8.57,3.81c-0.5,0.97-0.92,1.97-1.38,2.96
		c-0.1801-0.53-0.54-1.6-0.72-2.14c-1.59-1.39-2.73,1.1-3.26,2.24c-1.11,2.8,0.63,5.56,1.87,7.99c1.08-2.21,1.83-4.85,4.07-6.19
		c1.67-0.88,3.39,0.13,5.02,0.58c1.63-2.66,3.47-5.27,4.46-8.27c0.75-3.43,1.0099-6.96,2.04-10.33c-3.53-2.19-5.61-6.22-9.62-7.66
		c-5.51-2.54-9.33-7.61-11.91-12.95c2.96,2.89,5.71,6.07,9.34,8.18c-0.97-1.71-2.01-3.35-3.03-5.02c0.81-2.34-0.64-4.49-1.15-6.72
		c-1.63-6.09,0.13-13.09,4.81-17.39c1.82-1.71,4.45-2.7,6.91-1.87c2.65,0.82,6.32,0.12,7.89,2.94c1.01,1.57,0.16,3.51,0.07,5.21
		c2.29-0.2,4.46,0.48,6.37,1.75c0.39-9.85,1.85-20.12,7.42-28.5c2.29-3.92,5.63-7.08,8.08-10.87c3.18-11.52,6.29-23.19,11.79-33.87
		c8.7-16.66,17.67-33.31,29.12-48.28C681.8643,79.92,691.6143,70.25,703.0844,63.07 M624.1943,197.11
		c1.44-6.08,5.41-11.05,7.43-16.86C627.7443,185.09,624.8843,190.88,624.1943,197.11 M887.9543,180.81
		c0.13,2.74,2.02,4.83,3.21,7.16c1.76,3.06,2.72,6.48,3.51,9.9c-0.17-1.51-0.32-3.02-0.47-4.52c0.41-0.02,1.22-0.05,1.63-0.07
		c1.55,5.81,1.1,11.9,0.86,17.84c0.91,1.25,1.84,2.49,2.8,3.72c-0.32-7.16-0.84-14.42-3.19-21.25l0.44-1.39
		c-1.02,0.1-2.04,0.18-3.03,0.27C892.9443,188.12,890.4343,184.35,887.9543,180.81 M890.8344,193.21c1.19,4.31,0.06,9.27,2.84,13.06
		C893.4343,201.79,892.3543,197.41,890.8344,193.21 M619.5543,214.83c0.94-1.2,1.86-2.41,2.79-3.61
		c-0.49-5.86-0.15-11.72,0.2401-17.57C620.4143,200.49,619.8943,207.71,619.5543,214.83 M627.5743,193.91
		c-0.96,4.05-1.92,8.14-2.19,12.31C628.0244,202.68,627.2643,198.04,627.5743,193.91 M595.4143,220.16c0.05-5.45,1.64-10.78,5.18-15
		C595.1943,208,593.3743,214.62,595.4143,220.16 M918.5043,205.19c3.5,4.23,5.01,9.54,5.15,14.97
		C925.6943,214.64,923.8543,208.04,918.5043,205.19 M606.6643,205.49c-0.38,1.52-0.74,3.05-1.1,4.58c-0.14-0.9-0.44-2.7-0.58-3.6
		c-5.84,3.47-6.86,11.6-2.9,16.88c0.9-5.42,3.94-10.23,8.65-13.1C610.4343,207.88,609.1943,205.82,606.6643,205.49 M908.0543,210.24
		c4.93,2.64,8.01,7.66,8.9,13.11c3.97-5.25,3.0099-13.49-2.94-16.84c-0.13,0.88-0.41,2.64-0.55,3.52
		c-0.3799-1.54-0.7599-3.08-1.15-4.61C909.8043,205.9,908.7744,208.07,908.0543,210.24 M606.2843,226.1
		c4.14-1.7,7.8-4.53,10.4901-8.1c0.4399-2.25-1.17-5.17-3.79-4.46C607.8743,215.23,605.3043,220.99,606.2843,226.1 M902.2843,218.05
		c2.67,3.57,6.37,6.33,10.48,8.04c0.96-5.07-1.54-10.9-6.69-12.5C903.3843,212.67,901.8843,215.84,902.2843,218.05 M599.1343,233.38
		c2.02,1.08,3.97,2.41,6.29,2.77C603.7243,234.47,601.2643,234.21,599.1343,233.38 M913.4843,236.02c2.37-0.04,4.27-1.53,6.25-2.63
		C917.6143,234.19,915.3443,234.69,913.4843,236.02 M604.7243,240.12c1.63,1.21,3.68,3.61,5.49,1.38
		C608.4243,240.88,606.5844,240.4,604.7243,240.12 M908.7643,241.5c1.88,2.24,3.86-0.12,5.51-1.39
		C912.3943,240.42,910.5543,240.9,908.7643,241.5 M584.9443,265.07c0.73-2.15,1.47-4.29,1.98-6.51
		C584.9243,260.15,584.4943,262.7,584.9443,265.07 M932.0844,258.55c0.52,2.21,1.25,4.37,1.99,6.53
		C934.5743,262.66,934.1743,260.11,932.0844,258.55 M594.5043,329.1c1.79-3,1.11-6.62,1.62-9.94
		C595.0943,322.38,594.2543,325.69,594.5043,329.1 M923.3843,319.74c0.04,3.12-0.63,6.54,1.15,9.34
		C924.6343,325.92,924.2143,322.78,923.3843,319.74 M589.6043,337.84c0.19-0.07,0.55-0.21,0.73-0.28
		c-0.66-3.86-0.54-7.78-0.78-11.67C588.8543,329.85,589.4943,333.86,589.6043,337.84 M928.7243,337.68
		c0.17,0.03,0.52,0.11,0.69,0.15c0.03-3.97,0.61-7.93,0.15-11.89C929.0643,329.83,929.2443,333.78,928.7243,337.68 M711.1943,350.29
		c-0.2,8.9-0.44,17.81-0.34,26.72c0.23,7.55-2.31,14.78-3.73,22.11c1.67,6.47,2.95,13.08,2.53,19.82
		c7.09-6.2,12.01-14.67,14.06-23.84c0.16-11.49-0.21-22.99-0.37-34.48C719.1743,357.32,715.0743,353.92,711.1943,350.29
		 M795.4943,363.58c0.57,14.13,0.66,28.29,1.68,42.38c2.54,5.42,7.29,9.7,12.23,13.03c-0.45-6.77,0.91-13.4,2.4901-19.92
		c-1.32-7.01-3.7401-13.9-3.72-21.1c-0.04-7.4,0.04-14.81-0.1-22.21C803.8843,358.38,799.7043,361.01,795.4943,363.58
		 M600.8344,393.96c-1.58,5.41-0.6801,11.08-0.1201,16.57c0.19,2.08,0.6801,4.16,2.02,5.84
		C601.7243,408.94,602.3143,401.3,600.8344,393.96 M917.6043,395.39c-0.2,7-0.63,13.99-1.36,20.96c0.65-1.08,1.58-2.08,1.71-3.39
		c1.0099-6.15,1.59-12.47,0.55-18.66C918.2744,394.57,917.8243,395.12,917.6043,395.39 M595.5543,406.89
		c1.13,2.12,2.08,4.41,0.93,6.75c0.28,0.05,0.85,0.15,1.14,0.2c-0.43-6.34-1.26-12.63-2.62-18.84
		C594.8843,398.96,594.6343,403.01,595.5543,406.89 M923.8043,395.52c-0.59,4.48-1.92,8.88-1.69,13.43l-0.8-0.68
		c0.03,1.83,0.09,3.66,0.17,5.49c0.34-0.01,1-0.05,1.33-0.06c-0.31-0.57-0.94-1.71-1.26-2.28c3.08-4.72,2.57-10.5,2.59-15.86
		C924.0543,395.55,923.8943,395.53,923.8043,395.52 M591.7744,412.62c-2.3,2.13-1.6201,5.47-1.4901,8.25
		c1.31-2.49,2.82-4.87,4.87-6.82C594.1843,413.26,593.1743,412,591.7744,412.62 M923.9043,414.05c2.01,1.92,3.57,4.23,4.72,6.76
		c0.38-2.74,1.02-6.23-1.48-8.18C925.7744,411.95,924.8843,413.37,923.9043,414.05 M603.1043,419.36
		C601.6343,422.41,606.4243,419.42,603.1043,419.36 M915.0643,419.35C913.4943,422.35,918.3743,419.53,915.0643,419.35
		 M596.2744,426.12c1.56-0.67,3.1-1.42,4.62-2.19c-0.51-1.26-1.02-2.53-1.59-3.74C596.6043,420.6,596.4943,424,596.2744,426.12
		 M919.7043,420.32c-0.6,1.17-1.08,2.39-1.57,3.6c1.52,0.77,3.05,1.53,4.63,2.2C922.5943,424.1,922.3443,420.34,919.7043,420.32
		 M593.2243,441.3c-1.16,0.71-0.3,3.29,1,1.92C595.3344,442.48,594.5343,439.95,593.2243,441.3 M924.5643,441.02
		c-0.84,0.87,0.17,3,1.44,2.45C926.8843,442.58,925.8243,440.42,924.5643,441.02 M598.1043,443.1c-0.57,2.76,0.08,5.49,0.99,8.11
		c1.69-2.01,3.07-4.67,5.79-5.42c1.82-0.09,3.01,1.31,4.24,2.43c0.3-1.23,1.97-2.71,0.79-3.88
		C605.9143,444.66,601.9043,444.45,598.1043,443.1 M913.0043,444.45c-1.48,0.18-3.33-0.7-4.49,0.53c0.35,1.09,0.97,2.1,1.53,3.12
		c1.12-1.08,2.3-2.38,4.03-2.3c2.83,0.6,4.17,3.41,5.84,5.47c0.95-2.63,1.5-5.39,1.15-8.18
		C918.4143,443.73,915.7643,444.68,913.0043,444.45 M605.1643,451.35c0.5-0.4,1.51-1.2,2.01-1.6
		C606.9643,447.04,602.7043,450.51,605.1643,451.35 M911.8043,449.65c0.09,1.26,2.64,2.46,2.75,0.59
		C914.6043,448.84,911.9143,447.86,911.8043,449.65 M631.5743,460.44c-1.37,2.45-2.89,4.83-4.36,7.23c2.65-0.34,5.22-1.14,7.6-2.37
		C634.1943,463.37,633.2744,461.59,631.5743,460.44 M649.2443,465.45c1.26-0.24,2.5-0.5,3.77-0.74c-0.38-1.62-0.74-3.22-1.16-4.82
		C650.9043,461.7,650.0343,463.56,649.2443,465.45 M866.0244,464.76c1.24,0.23,2.49,0.45,3.75,0.66
		c-0.76-1.85-1.5601-3.68-2.39-5.48C866.8643,461.53,866.4143,463.13,866.0244,464.76 M885.5844,461.69
		c-0.42,1.23-0.83,2.47-1.23,3.72c2.35,1.17,4.87,1.89,7.48,2.25c-1.39-2.29-2.8701-4.52-4.17-6.85
		C887.1443,461.03,886.1043,461.47,885.5844,461.69 M819.8043,476.86c1.44,2.13,2.79,4.5,5.11,5.82c3.63,0.47,5.76-3.46,5.7-6.59
		c-0.5-1.43-1.25-2.73-1.87-4.09C825.4943,473.09,822.6243,474.98,819.8043,476.86 M640.0743,473.09c-0.51,1.41-0.05,1.87,1.37,1.38
		C641.9443,473.06,641.4843,472.6,640.0743,473.09 M643.8344,474.15c-0.9,0.93-1.85,1.83-2.64,2.86c-0.06,1.49,1.69,2.26,2.75,3.03
		c1.51-1.19,2.66-2.95,4.51-3.65c1.91-0.59,3.2599,1.23,4.61,2.23c1.78-1.63,3.38-3.46,4.79-5.42
		C653.3843,474.94,648.4943,475.5,643.8344,474.15 M861.1543,473.19c1.4,1.97,3.04,3.77,4.83,5.41c0.94-0.84,1.95-1.61,3.01-2.3
		c2.71-0.39,4.21,2.24,6.09,3.69c1.12-0.55,2.0699-1.39,2.91-2.32c-0.51-1.45-1.81-2.39-2.74-3.53
		C870.5743,475.53,865.6443,474.94,861.1543,473.19 M877.5343,473.08c-0.42,1.38,0.08,1.88,1.48,1.48
		C879.4243,473.15,878.9243,472.66,877.5343,473.08 M658.1743,491.07c5.45-1.54,8.87-6.76,9.57-12.17
		C665.0543,483.33,662.3943,487.89,658.1743,491.07 M851.2744,478.92c0.8,5.34,4.12,10.8,9.7,12.06c-0.69-0.5-2.06-1.51-2.75-2.02
		c0.56-0.55,1.13-1.1,1.71-1.64c1.8,1.75,3.96,3.06,6.14,4.3c1.12-0.75,2.21-1.53,3.35-2.28c-3.31-0.72-6.53-1.71-9.72-2.76
		c-1.13-0.58-2,0.44-2.9,0.87C854.8543,484.67,853.1643,481.73,851.2744,478.92 M649.8543,489.02c0.94,0.9,1.81,2,3.08,2.46
		c2.89-1.09,5.27-3.15,7.33-5.41C656.9243,487.5,653.4843,488.67,649.8543,489.02z"/>
	<path stroke="#000000" stroke-width="0.0938" d="M565.3543,638.59c15.12,12.73,27.02,30.29,46.09,37.54
		c-7.23,40.69-14.54,81.37-22.02,122.02c-9.94,49-25.07,96.73-37.79,145.02c-2.58,14.39-4.05,28.95-6.44,43.37
		c-4.05,16.05-11.38,31.23-20.94,44.72c-1.7,2.28-3.24,4.73-5.35,6.66c-3.4-0.4701-3.74-5.12-2.58-7.66
		c2.75-6.39,5.27-12.88,7.56-19.46c-1.97-4.77-5.74-9.11-11.01-10.12c-7.54-1.37-15.19,0.22-22.73,0.84
		c-2.02,8.26-3.61,16.61-4.98,25c6.46,5.7,10.78,13.41,15.69,20.4299c5.86-4.6399,13.81-3.61,20.2701-6.85
		c3.28-1.58,8.09-3.34,10.8,0.14c1.73,1.62,0.45,3.75-0.53,5.35c0.09,1.85,1.03,4.66-1.4901,5.3c-5.8799,2.23-11.8,4.48-17.21,7.74
		c6.14,2.58,13.51,3.27,18.25,8.41c2.47,2.88,4.36,7.1499,2.92,10.8999c-1.19,2.39-4.1,1.16-5.97,0.4
		c-6.46-2.87-13.1801-5.15-20.08-6.6799c3.27,5.2799,10.62,7.5399,11.78,14.3199c0.76,2.74-2.02,3.9501-3.96,4.98
		c11.74,29.3,23.75,58.49,35.73,87.6901c-0.92,0.11-1.85,0.23-2.77,0.35c-12.06-29.55-24.17-59.09-36.15-88.67
		c-4.44-2.25-9.5901-2.4099-14.36-3.62c3.93,30.9401,9.08,61.7001,13.46,92.5801c-0.94-0.2101-1.87-0.4-2.79-0.5601
		c-4.32-31-9.52-61.88-13.48-92.9399c-0.46-0.16-1.39-0.49-1.85-0.66c-3.41,29.64-5.29,59.45-9.16,89.04
		c-0.7-0.16-2.09-0.4801-2.79-0.64c3.69-24.36,5.08-49.02,7.7-73.51c0.41-5.38,1.35-10.71,1.61-16.1
		c-1.95-2.62-4.5-4.7301-6.71-7.12c-8.91,31.7999-15.17,64.26-21.95,96.5599c-2.24,10.02-3.95,20.1801-6.52,30.11
		c-0.61,0.11-1.84,0.3101-2.45,0.41c1.81-9.98,4.09-19.87,6.12-29.8c7.02-33.22,13.25-66.6599,22.7-99.2899
		c-5.23-4.38-11.3-8.36-14.23-14.77c-2.62-5.6801-2.02-12.13-1.18-18.13c1.27-8.25,1.32-16.62,1.63-24.94
		c-0.35-7.69,2.42-15.22,1.29-22.91c-0.55-6.04-1.34-13.37,3.99-17.63c14.79-12.65,29.79-25.05,44.2-38.14
		c-0.12-3.12,2.25-5.48,3.44-8.18c14.31-27.46,18.21-58.6801,21.71-89.02c2-17.69,4.28-35.34,6.15-53.04
		c3.09-26.97,3.96-54.1201,6.33-81.15c1.43-14.82,1.96-29.82,5.36-44.37C562.3243,654.56,563.9143,646.59,565.3543,638.59
		 M495.6343,1068.4399c2.73,2.9501,6.73,4.2101,10.66,4.3701C504.0943,1069.21,499.2043,1069.66,495.6343,1068.4399z"/>
	<path stroke="#000000" stroke-width="0.0938" d="M910.1343,676.94c19.39-6.28,31.5-23.67,46.27-36.52
		c1.91,11.26,4.64,22.36,6.57,33.62c3.09,27.25,4.87,54.63,6.59,82c1.61,22.7,4.31,45.31,7.02,67.9
		c2.85,23.11,4.79,46.43,10.2599,69.12c3.46,14.43,8.52,28.55,15.89,41.46c0.7,1.11,1,2.36,0.97,3.7
		c14.5,13.2401,29.7299,25.67,44.5499,38.55c5.02,4.26,4.26,11.38,3.67,17.25c-1.15,7.37,1.47,14.6,1.34,21.97
		c0.1699,8.6901,0.27,17.42,1.61,26.02c0.98,6.8,1.4399,14.36-2.48,20.38c-4.03,6.5599-11.22,10.0499-16.3301,15.6
		c-2.47,2.5601-4.75,5.51-8.0499,7.0601c-5.27,2.51-11.2599,2.5-16.7499,4.3099c-2.35,0.64-4.89,1.8-7.28,0.72
		c-1.59-0.61-2.64-2.5399-2.17-4.1699c1.19-4.53,4.75-8.05,8.59-10.51c4.83-3.35,11.56-2.51,15.71-7.05
		c-11.0599,2.76-22.2899,5.3301-32.7199,10.0601c-1.8,0.7999-4.27,1.6799-5.73-0.1801c-1.61-3.96,0.33-8.5,3.08-11.45
		c4.71-4.91,11.85-5.5701,17.85-8.0701c-5.78-3.95-12.5699-5.88-18.91-8.6499c0.04-2.16,1-4.4801-0.62-6.3
		c-1.54-2.27,1.15-4.72,3.21-5.35c4.6-1.01,8.42,2.49,12.72,3.45c5.27,1.23,11.09,1.46,15.46,5.1
		c2.83-4,5.4299-8.1599,8.4399-12.0299c2.3199-2.9,4.15-6.3301,7.4299-8.3c-1.51-8.4-2.98-16.81-5.0499-25.09
		c-7.58-0.66-15.27-2.24-22.86-0.85c-5.25,1.04-8.99,5.35-10.86,10.16c2.3,6.42,4.62,12.84,7.43,19.0601
		c1.14,2.4,0.86,5.38-0.74,7.51c-1.09,0.46-2.34,0.59-2.9-0.66c-10.37-12.96-18.25-27.89-23.29-43.69
		c-2.8-8.03-3.17-16.58-4.51-24.9c-1.14-8.24-2.29-16.47-3.68-24.67c-11.23-42.49-24.16-84.57-34.04-127.42
		c-4.75-20.56-8-41.42-11.9-62.15C919.3043,728.27,914.6343,702.62,910.1343,676.94z"/>
	<path stroke="#000000" stroke-width="0.0938" d="M591.9543,862.62c3.81-10.71,7.83-21.37,12.86-31.59
		c6.8,5.73,14.97,9.47,22.98,13.1899c23.95,10.59,48.78,19.02,73.65,27.13c10.3,3.34,21.06,4.85,31.68,6.83
		c30.31,4.99,61.37,7.44,91.94,3.35c16.73-2.44,33.75-6.54,48.02-15.9901c1.28,4.44,2.85,8.81,3.95,13.31
		c0.72,3.08,1.16,6.23,1.47,9.39c-39.62,18.35-84.88,19.4-127.46,13.4c32.28,8.74,65.49,14.94,99,15.54
		c13.52-0.2,27.33-0.86,40.18-5.45c0.83,3.22,1.85,6.42,2.34,9.74c0.38,4.25,1.62,9.33-1.33,12.97c-6.4,1.88-13.19,1.96-19.78,2.75
		c-46.26,3.53-92.58-4.56-137.01-16.97C685.1043,906.1,637.3243,886.59,591.9543,862.62z"/>
	<path stroke="#000000" stroke-width="0.0938" d="M581.5543,913.64c6.32-1.72,12.89-2.5,19.44-2.19c15.71,0.61,31.08,4.4,46.07,8.9
		c17.55,5.21,34.29,12.75,51.82,18.02c24.83,7.89,50.29,13.8,76.08,17.5c42.51,5.96,86.38,6.15,128.22-4.3
		c5.35,53.99,5.17,108.34,3.4,162.4999c-1.46,48.8301,3.28,97.5701,9.29,145.9601c6.36,49.9199,9.04,100.23,15.54,150.13
		c3.56,25.0599,8.79,49.85,12.45,74.9c3.25,21.0299,4.37,42.2999,6.38,63.47c2.61,30.7999,5.29,61.6,8.17,92.38
		c1.93,22.34,4.36,44.64,5.37,67.0499c0.13,6.03,1.89,11.79,3.45,17.5601c0.91,7.03,1.37,14.26,0.53,21.2999
		c-3.24,2.26-7.04,3.55-10.75,4.8201c-4.64,1.71-10.36,0.67-14.02,4.59c-5.94,0.04-11.88,0.16-17.82,0.15
		c-0.05,11.5,1.27,23.0699-0.18,34.54c-1.07,8.72-6,16.25-10.5,23.5699c-9.81,1.9401-19.49,4.74-29.49,5.58
		c-8.64,0.62-17.26-1.1899-25.9-0.3899c-7.78,0.8099-14.99-3.3-22.74-3.0801c2.18-12.84,3.89-25.75,6.14-38.5699
		c2.66-10.42,4.4-21.0601,5.42-31.75c-5.22-1.9501-10.5-3.74-15.9-5.1c-4.32-0.9401-7.66-4.0801-11.85-5.3401
		c-1.83-0.7799-4.57-1.52-4.59-3.9199c-0.26-5.62,0.1299-11.25,0.37-16.86c0.1-4.25,1.96-8.1001,3.31-12.02
		c1.9-5.4601,2.08-11.3301,1.62-17.03c-0.6-8.75,1.95-17.3201,1.71-26.05c-0.03-23.99,0.53-47.97,0.73-71.96
		c0.85-52.4-3.55-104.6899-4.13-157.0601c-0.52-26.6299,1.44-53.33-0.98-79.8999c-0.52-5.5801-3.3-10.5801-4.33-16.03
		c-1.93-10.22-2.73-20.62-2.66-31c0.21-6.5701-4.95-11.34-7.16-17.1c-6.83-17.2101-8.87-35.77-11.31-53.9701
		c-1.25-10.34-3.3-20.5499-4.52-30.8799c-1.45-10.3501-2.25-20.88-5.51-30.8701c-2.1-6.34-2.38-13.0399-3.54-19.5599
		c-1.43-4.55-3.48-8.91-4.29-13.65c-1.03-5.8199-4.19-11.08-4.34-17.0699c-0.24-5.28-3.15-9.8101-4.76-14.7001
		c-3.08-8.89-5.15-18.08-8.15-26.98c-4.07-12.4399-6.12-25.41-9.28-38.08c-1.99-7.3101,1.07-14.77-0.25-22.09
		c-1.11-4.86-7.1-5.1-11.07-4.29c-1.78,0.5-1.49,2.69-1.7,4.11c-0.72,17.0599,0.63,34.22-1.53,51.21
		c-2.5,19.98-5.26,39.92-7.96,59.88c-1.38,10.27-0.57,20.64-1.33,30.9501c-2.29,22.2999-1.17,44.74-0.69,67.11
		c0.49,25.33-2.57,50.61-1.42,75.9399c1.26,27.35,1.27,54.8,4.57,82.01c2.65,24.0701,5.22,48.16,9.07,72.0701
		c7.76,49.22,17.34,98.2,22.3,147.8099c2.29,24.0701,4,48.1901,6.63,72.23c1.17,8.8101,1.98,17.9,5.69,26.1
		c1.66,3.89,1.87,8.1801,3.08,12.2101c0.86,2.9199,1.4,6.78-1.32,8.9299c-8.79,7.0901-19.54,11.27-30.42,13.92
		c2.39,8.3199,5.52,16.46,9.71,24.0601c2.41,4.1,5.22,8.46,9.86,10.2699c3.12,14.27,6.02,28.5901,9.18,42.86
		c-13.3,5.01-27.8,3.9501-41.67,2.78c-9.99-1.03-20-1.9399-30.04-1.9399c-8.41-0.39-18.15-1.5-23.88-8.41
		c-1.93-7.78-1.9-16.4399-6.67-23.23c0.1,6.9,3.22,13.46,2.69,20.4c-0.24,5.11-6.9,8.63-11.17,5.97
		c-3.7401-4.01-2.46-10.02-2.8701-15c-1.09-20.17-2.47-41.76-14.18-58.99c-1.93-2.67-3.21-5.9-5.63-8.14
		c-7.77-4.1-15.46-8.4401-22.45-13.78c-3.95-3.08-5.14-8.3099-5.04-13.0699c0.2-5.0901,0.58-10.2101,2.16-15.0801
		c2.56-7.5299,0.46-15.49,0.3-23.2c10.11-0.83,20.18-2.13,30.32-2.63c-2.33-20.0699-5.78-40.01-8.46-60.03
		c-8.8-61.59-17.97-123.12-26.67-184.72c0.59-60.4399-0.27-120.89-1.31-181.33c0.09-13.01-4.94-25.24-6.54-38.01
		c-1.89-13.98-2.62-28.0701-3.92-42.11c-4.03-48.42-9.13-96.76-15.48-144.9301c-1.54-13.92-2.18-27.94-2.15-41.94
		C578.1443,950.54,577.9243,931.88,581.5543,913.64z"/>
	<path stroke="#000000" stroke-width="0.0938" d="M462.3843,1107.5601c4.48-11.4701,8.62-23.1101,13.66-34.3401
		c2.19-0.96,2.21,0.9501,1.62,2.53c-12.82,31.9301-24.74,64.21-36.22,96.64c-2.98,8.34-5.72,16.75-8.58,25.13
		c-1.24-0.75-2.37-1.63-1.56-3.1801c2.12-7.46,4.91-14.71,7.34-22.0599C446.3043,1150.61,454.2243,1129.04,462.3843,1107.5601z"/>
	<path stroke="#000000" stroke-width="0.0938" d="M553.8843,1192.4c0.09-2.04,0.32-4.05,0.53-6.05c2.47,6.28,4.97,12.54,7.39,18.85
		c-0.59,0.28-1.77,0.8401-2.36,1.12C557.6243,1201.66,555.7843,1197.01,553.8843,1192.4z"/>
	<path fill="#2E3192" stroke="#2E3192" stroke-width="0.0938" d="M603.1043,419.36C606.4243,419.42,601.6343,422.41,603.1043,419.36
		z"/>
	<path fill="#2E3192" stroke="#2E3192" stroke-width="0.0938" d="M915.0643,419.35C918.3743,419.53,913.4943,422.35,915.0643,419.35
		z"/>
	<path fill="#2E3192" stroke="#2E3192" stroke-width="0.0938" d="M593.2243,441.3c1.31-1.35,2.11,1.18,1,1.92
		C592.9243,444.59,592.0643,442.01,593.2243,441.3z"/>
	<path fill="#2E3192" stroke="#2E3192" stroke-width="0.0938" d="M924.5643,441.02c1.26-0.6,2.32,1.56,1.44,2.45
		C924.7343,444.02,923.7243,441.89,924.5643,441.02z"/>
	<path fill="#2E3192" stroke="#2E3192" stroke-width="0.0938" d="M640.0743,473.09c1.41-0.49,1.87-0.03,1.37,1.38
		C640.0244,474.96,639.5643,474.5,640.0743,473.09z"/>
	<path fill="#2E3192" stroke="#2E3192" stroke-width="0.0938" d="M877.5343,473.08c1.39-0.42,1.89,0.07,1.48,1.48
		C877.6143,474.96,877.1143,474.46,877.5343,473.08z"/>
	<path fill="#2E3192" stroke="#2E3192" stroke-width="0.0938" d="M553.7343,1194.11c1.1,4.33,1.25,8.8201,1.66,13.27
		c-0.77-0.1801-2.29-0.55-3.06-0.73C552.7243,1202.46,553.1043,1198.27,553.7343,1194.11z"/>
	<path fill="#2E3192" stroke="#2E3192" stroke-width="0.0938" d="M561.8043,1205.2c4.67-2.25,9.3-4.5499,13.98-6.75
		c10.56,72.9701,21.04,145.9701,31.72,218.92c8.7,61.6,17.87,123.13,26.67,184.72c2.68,20.02,6.13,39.9601,8.46,60.03
		c-10.14,0.5-20.21,1.8-30.32,2.63c-6.83,0.6801-13.65,1.36-20.48,1.87c-0.47-12.17-1.95-24.26-2.7401-36.4
		c0.19-9.0699-1.46-18.0399-1.84-27.09c-7.4-97.37-15.42-194.7-22.67-292.09c-2.7-34.4501-5.48-68.91-8.01-103.38
		c0.95-0.4501,1.91-0.9,2.87-1.3401C560.0343,1206.04,561.2143,1205.48,561.8043,1205.2z"/>
	<path fill="#2E3192" stroke="#2E3192" stroke-width="0.0938" d="M538.1643,1359.77c0.84,18.0499,0.12,36.14,0.28,54.21
		c-0.01,56.3301-0.64,112.65-0.64,168.98c0.03,22.8501-0.44,45.73,0.22,68.5701c-0.42,6.74-0.1801,13.5-0.22,20.26
		c-17.4-26.4-34.82-52.8-52.23-79.1901c3.69-0.5,7.37-1.15,11.06-1.72c6.6,1.16,13.06,2.98,19.6,4.45
		C523.5643,1516.8101,530.7943,1438.29,538.1643,1359.77z"/>
	<path fill="#C8EAF4" stroke="#C8EAF4" stroke-width="0.0938" d="M694.5643,451.45c2.06,7.18-1.38,14.48-3.08,21.39
		c4.03-5.03,5.65-11.41,6.91-17.6c4.54,4.25,8.72,8.93,11.86,14.32c4.63,7.83,8.1,16.94,15.95,22.24
		c9.35,6.32,20.71,9.16,31.77,10.58c22.15-3.15,42.52-13.45,61.26-25.25c0.05,4.54,1.59,9.41,5.48,12.11
		c2.46,1.92,5.71,1.17,8.59,1.32c-0.7,2.33-1.29,4.85-3.04,6.66c-2.17,2.45-5.48,3.2-8.37,4.46c3.61,0.45,7.53,0.13,10.43-2.3
		c4.33-3.13,5.13-9.01,9.31-12.26c2.81,5.57,5.62,11.62,11.01,15.18c3.28,2.51,7.5,2.93,11.5,2.47c-5.32-1.23-10.48-3.46-14.14-7.64
		c6.44,3.11,14.55,4.76,20.97,0.72c3.38-2.01,4.6-5.97,5.42-9.56c3.49-1.54,6.21-4.29,7.77-7.77c2.28,0.16,4.58,0.24,6.89,0.22
		c-2.55-1.32-7.2-1.01-6.85-4.97c5.02,0.39,10.23,0.18,14.65-2.51c2.98,1.07,6.13,1.53,9.3,1.18c-2.6-0.94-5.27-1.65-7.79-2.74
		c0.11-3.11,3.59-1.87,5.63-2.08c4.43,0.45,8.39-1.8,12-4.08c0.48-2.32,1.23-4.93,4.14-4.92c8.66,26.98,18.39,53.61,28.01,80.27
		c3.72,11.9,6.1,24.19,9.96,36.06c4.83,17,11.45,33.39,17.34,50.02c-7.8,3.1-14.75,7.96-21.04,13.45
		c-14.77,12.85-26.8799,30.24-46.27,36.52c-10.19,3.27-21.02,3.27-31.49,4.65c-0.55,10.74-3.19,21.2-5.2,31.73
		c-3.04,15.4-6.41,30.73-8.98,46.22c-4.18,23.09-0.48,46.6,3.5,69.45c2.21,11.97,3.48,24.09,6,36.01l-0.8799,0.54
		c-14.27,9.45-31.29,13.55-48.02,15.9901c-30.57,4.09-61.63,1.64-91.94-3.35c-10.62-1.98-21.38-3.49-31.68-6.83
		c-24.87-8.11-49.7-16.54-73.65-27.13c-8.01-3.72-16.18-7.46-22.98-13.1899c4.08-7.4301,7.65-15.1201,11.52-22.65
		c12.78-24.74,25.78-49.9,31.5-77.37c3.12-16.44,0.86-33.21-0.22-49.73c-12.17-0.44-24.58-1.1-36.17-5.15
		c-19.07-7.25-30.97-24.81-46.09-37.54c-5.85-4.69-12.06-9.04-19.14-11.67c6.4-16.81,12.79-33.63,17.79-50.91
		c4.16-13.21,6.75-26.85,10.98-40.04c5.6-18.3199,11.05-36.68,16.87-54.94c1.34-4.68,3.06-9.25,3.96-14.04
		c0.44-2.11,0.67-4.44,2.3-6.02c0.42,0.11,1.26,0.34,1.69,0.45c0.45,1.34,0.83,2.71,1.18,4.1c3.09,1.74,6.2,3.94,9.88,4.04
		c2.89,0.31,6.16-0.69,8.54,1.56c-2.61,1.28-5.35,2.25-7.96,3.52c3,0.1,5.97-0.43,8.8-1.41c4.38,2.75,9.61,2.93,14.63,2.5
		c0.26,3.97-4.32,3.71-6.92,4.96c2.31,0.05,4.62-0.01,6.94-0.16c1.54,3.47,4.25,6.19,7.72,7.74c0.89,3.83,2.32,8.07,6.1,9.96
		c6.39,3.57,14.08,1.88,20.35-1.08c-3.73,4.19-8.96,6.33-14.21,7.9c3.48,0.18,7.13-0.04,10.17-1.93c6.18-3.35,9.42-9.93,12.36-15.98
		c4.23,3.17,4.98,9.06,9.28,12.18c2.85,2.39,6.72,3,10.28,2.14c-2.86-1.1-6.07-1.84-8.15-4.26c-1.77-1.79-2.36-4.31-3.05-6.63
		c2.83-0.16,6.02,0.57,8.48-1.27c4.21-2.74,5.59-8,5.65-12.75c-1.95,2.07-3.34,4.94-6.05,6.11c-3.68,0.39-4.96-3.64-5.63-6.45
		c2.16-3.18,3.07-6.93,3.25-10.73c-0.84,0.87-2.52,2.59-3.36,3.46C689.3443,462.83,691.2443,456.78,694.5643,451.45z"/>
	<path fill="#C8EAF4" stroke="#C8EAF4" stroke-width="0.0938" d="M631.5743,460.44c1.7,1.15,2.62,2.93,3.24,4.86
		c-2.38,1.23-4.95,2.03-7.6,2.37C628.6843,465.27,630.2043,462.89,631.5743,460.44z"/>
	<path fill="#C8EAF4" stroke="#C8EAF4" stroke-width="0.0938" d="M649.2443,465.45c0.79-1.89,1.66-3.75,2.61-5.56
		c0.42,1.6,0.78,3.2,1.16,4.82C651.7443,464.95,650.5043,465.21,649.2443,465.45z"/>
	<path fill="#C8EAF4" stroke="#C8EAF4" stroke-width="0.0938" d="M866.0244,464.76c0.39-1.63,0.84-3.23,1.36-4.82
		c0.83,1.8,1.63,3.63,2.39,5.48C868.5143,465.21,867.2643,464.99,866.0244,464.76z"/>
	<path fill="#C8EAF4" stroke="#C8EAF4" stroke-width="0.0938" d="M885.5844,461.69c0.52-0.22,1.56-0.66,2.08-0.88
		c1.3,2.33,2.78,4.56,4.17,6.85c-2.61-0.36-5.13-1.08-7.48-2.25C884.7543,464.16,885.1643,462.92,885.5844,461.69z"/>
	<path fill="#C8EAF4" stroke="#C8EAF4" stroke-width="0.0938" d="M819.8043,476.86c2.82-1.88,5.69-3.77,8.94-4.86
		c0.62,1.36,1.37,2.66,1.87,4.09c0.06,3.13-2.07,7.06-5.7,6.59C822.5943,481.36,821.2443,478.99,819.8043,476.86z"/>
	<path fill="#C8EAF4" stroke="#C8EAF4" stroke-width="0.0938" d="M643.8344,474.15c4.66,1.35,9.55,0.79,14.02-0.95
		c-1.41,1.96-3.01,3.79-4.79,5.42c-1.35-1-2.7-2.82-4.61-2.23c-1.85,0.7-3,2.46-4.51,3.65c-1.06-0.77-2.81-1.54-2.75-3.03
		C641.9843,475.98,642.9343,475.08,643.8344,474.15z"/>
	<path fill="#C8EAF4" stroke="#C8EAF4" stroke-width="0.0938" d="M861.1543,473.19c4.4901,1.75,9.42,2.34,14.1,0.95
		c0.93,1.14,2.23,2.08,2.74,3.53c-0.84,0.93-1.79,1.77-2.91,2.32c-1.88-1.45-3.38-4.08-6.09-3.69c-1.06,0.69-2.07,1.46-3.01,2.3
		C864.1943,476.96,862.5543,475.16,861.1543,473.19z"/>
	<path fill="#C8EAF4" stroke="#C8EAF4" stroke-width="0.0938" d="M658.1743,491.07c4.22-3.18,6.88-7.74,9.57-12.17
		C667.0443,484.31,663.6243,489.53,658.1743,491.07z"/>
	<path fill="#C8EAF4" stroke="#C8EAF4" stroke-width="0.0938" d="M851.2744,478.92c1.89,2.81,3.58,5.75,5.53,8.53
		c0.9-0.43,1.77-1.45,2.9-0.87c3.19,1.05,6.41,2.04,9.72,2.76c-1.14,0.75-2.23,1.53-3.35,2.28c-2.18-1.24-4.34-2.55-6.14-4.3
		c-0.58,0.54-1.15,1.09-1.71,1.64c0.69,0.51,2.06,1.52,2.75,2.02C855.3943,489.72,852.0743,484.26,851.2744,478.92z"/>
	<path fill="#C8EAF4" stroke="#C8EAF4" stroke-width="0.0938" d="M649.8543,489.02c3.63-0.35,7.07-1.52,10.41-2.95
		c-2.06,2.26-4.44,4.32-7.33,5.41C651.6643,491.02,650.7943,489.92,649.8543,489.02z"/>
	<path fill="#C8EAF4" stroke="#C8EAF4" stroke-width="0.0938" d="M591.9543,862.62c45.37,23.97,93.15,43.48,142.49,57.6
		c44.43,12.41,90.75,20.5,137.01,16.97c6.59-0.79,13.38-0.87,19.78-2.75c2.95-3.64,1.71-8.72,1.33-12.97
		c1.37,1.36,2.49,2.96,3.16,4.8c2.89,7.46,5.99,14.85,8.74,22.37c0.67,1.08,0.26,2.92-1.28,2.93
		c-41.84,10.45-85.71,10.26-128.22,4.3c-25.79-3.7-51.25-9.61-76.08-17.5c-17.53-5.27-34.27-12.81-51.82-18.02
		c-14.99-4.5-30.36-8.29-46.07-8.9c-6.55-0.31-13.12,0.47-19.44,2.19c0.83-11.03,2.52-21.99,5.16-32.74
		C588.2043,874.74,590.4843,868.79,591.9543,862.62z"/>
	<path fill="#C8EAF4" stroke="#C8EAF4" stroke-width="0.0938" d="M877.0343,878.85c5.25,10.61,7.98,22.26,13.27,32.85l-0.08,0.03
		c-12.85,4.59-26.66,5.25-40.18,5.45c-33.51-0.6-66.72-6.8-99-15.54c42.58,6,87.84,4.95,127.46-13.4
		C878.1943,885.08,877.7543,881.93,877.0343,878.85z"/>
	<path fill="#41ACE7" stroke="#41ACE7" stroke-width="0.0938" d="M333.7643,1568.49c14.44,1.47,28.71,4.1901,43.11,6
		c13.59,2.42,27.41,2.71,41.14,3.75c12.04,0.83,24.1,1.48,36.12,2.59c4.73,0.5701,9.32,1.9,13.94,3c9.51,2.38,19.14,4.28,28.56,7.05
		c-3.69,0.5699-7.37,1.22-11.06,1.72c-12.2,1.67-24.41,3.17-36.6,4.84c-2.21,0.2201-4.48,0.6001-6.67,0.05
		C406.4443,1586.6899,369.9843,1577.99,333.7643,1568.49z"/>
	<path fill="#A7DCEB" stroke="#A7DCEB" stroke-width="0.0938" d="M551.3643,1178.65c-0.92,0.11-1.85,0.23-2.77,0.35
		c-9.8199,0.63-19.66,1.58-29.5099,1.6c-2.54-0.33-5.04-0.83-7.5401-1.3099c-0.9401-0.2101-1.8701-0.4-2.79-0.5601
		c-8.1599-1.5499-16.34-3.01-24.49-4.5599c-0.7-0.16-2.0901-0.4801-2.79-0.64c-0.5,0.72-0.98,1.47-1.4299,2.25
		c-5.98-0.74-12.1201-0.5901-17.92-2.42c-2.24,10.02-3.95,20.1801-6.52,30.11c-0.61,0.11-1.84,0.3101-2.45,0.41
		c1.81-9.98,4.09-19.87,6.12-29.8c-5.91-0.89-11.85-1.62-17.83-1.6899c-2.98,8.34-5.72,16.75-8.58,25.13
		c-1.24-0.75-2.37-1.63-1.56-3.1801c2.12-7.46,4.91-14.71,7.34-22.0599c-1.2-0.37-2.39-0.73-3.58-1.0701
		c-8.56,28.0601-16.2,56.41-24.41,84.5801c-24.21,84.38-48.22,168.8099-72.44,253.1899c-5.31,19.22-11.25,38.3-16.2,57.61
		c3.92,0.5901,7.8,1.4601,11.75,1.9c14.44,1.47,28.71,4.1901,43.11,6c13.59,2.42,27.41,2.71,41.14,3.75
		c12.04,0.83,24.1,1.48,36.12,2.59c4.73,0.5701,9.32,1.9,13.9401,3c9.51,2.38,19.1399,4.28,28.5599,7.05
		c6.6,1.16,13.0599,2.98,19.6,4.45c7.3301-78.5199,14.5601-157.0399,21.9299-235.5599c4.5701-51.05,9.4001-102.0801,14.1702-153.12
		c0.3899-4.1901,0.7699-8.38,1.3999-12.54c0.03-0.4299,0.11-1.28,0.15-1.71c0.09-2.04,0.3199-4.05,0.5299-6.05
		c0.1201-2.4399,0.24-4.88,0.3501-7.2999C553.6243,1178.89,552.4943,1178.77,551.3643,1178.65z"/>
	<path fill="#356AE5" stroke="#356AE5" stroke-width="0.0938" d="M589.0943,1630.22c0.1901-9.0699-1.46-18.0399-1.84-27.09
		c-7.4-97.37-15.4199-194.7-22.6699-292.09c-2.7001-34.4501-5.4801-68.91-8.01-103.38c-0.3-0.0701-0.8901-0.2101-1.1801-0.28
		c-0.77-0.1801-2.29-0.55-3.0599-0.73c-4.77,51.0399-9.6001,102.0699-14.1702,153.12c0.8401,18.0499,0.1201,36.14,0.28,54.21
		c-0.01,56.3301-0.6399,112.65-0.6399,168.98c0.03,22.8501-0.4401,45.73,0.22,68.5701c-0.42,6.74-0.1801,13.5-0.22,20.26
		c18.01-1.7101,36.01-3.42,54.03-5.03v-0.14C591.3643,1654.45,589.8843,1642.36,589.0943,1630.22z"/>
</g>
</svg>
